<?xml version="1.0" standalone="no"?>
<!DOCTYPE svg PUBLIC "-//W3C//DTD SVG 20010904//EN"
 "http://www.w3.org/TR/2001/REC-SVG-20010904/DTD/svg10.dtd">
<svg version="1.0" xmlns="http://www.w3.org/2000/svg"
 width="300.000000pt" height="239.000000pt" viewBox="0 0 300.000000 239.000000"
 preserveAspectRatio="xMidYMid meet">
<metadata>
Created by potrace 1.10, written by Peter Selinger 2001-2011
</metadata>
<g transform="translate(0.000000,239.000000) scale(0.100000,-0.100000)"
fill="#000000" stroke="none">
<path d="M1267 1932 c-9 -10 -23 -34 -31 -54 -9 -20 -28 -45 -43 -56 -15 -11
-25 -23 -22 -26 11 -11 77 54 82 82 11 55 27 62 135 56 58 -4 107 -2 122 4 19
8 -4 11 -101 11 -109 1 -128 -1 -142 -17z"/>
<path d="M1674 1923 c-21 -8 -46 -15 -55 -16 -10 -1 -14 -8 -11 -19 5 -22 5
-22 44 2 18 11 43 20 56 20 21 0 159 -91 220 -144 12 -11 22 -15 22 -10 0 14
-98 107 -150 141 -59 39 -79 43 -126 26z"/>
<path d="M1289 1918 c-10 -35 -7 -38 23 -22 16 8 32 13 35 10 3 -3 -11 -13
-32 -23 l-37 -18 28 -13 29 -13 -35 6 c-25 3 -31 2 -20 -5 24 -15 45 -12 84
15 20 13 36 20 36 15 0 -5 -10 -16 -22 -24 -12 -9 -18 -16 -14 -16 5 0 18 8
28 17 24 21 45 25 51 9 6 -15 83 -46 191 -75 121 -34 102 -17 -27 24 -63 19
-134 49 -158 65 -44 29 -44 29 -65 9 -31 -29 -41 -23 -13 8 17 20 18 23 3 10
-25 -20 -41 -23 -25 -3 16 19 -3 30 -28 16 -25 -13 -34 -13 -26 0 3 6 4 10 1
10 -3 0 -6 -1 -7 -2z"/>
<path d="M1506 1911 c-4 -5 -2 -12 4 -16 5 -3 10 -11 10 -17 0 -6 -11 -1 -24
11 -13 12 -27 18 -30 13 -3 -5 1 -15 9 -22 8 -7 15 -9 15 -5 0 4 7 2 15 -5 8
-7 15 -9 15 -5 0 5 8 1 18 -8 21 -19 33 -13 25 11 -4 16 -3 16 9 0 20 -24 43
-8 24 17 -17 24 -47 29 -39 7 5 -12 -1 -10 -19 6 -15 14 -28 19 -32 13z"/>
<path d="M1653 1874 c-59 -35 -54 -40 10 -8 61 31 65 34 46 34 -8 0 -33 -12
-56 -26z"/>
<path d="M1666 1856 c-34 -22 -36 -25 -18 -31 12 -3 34 1 51 9 44 23 62 19 21
-5 -26 -15 -29 -18 -10 -13 14 4 31 9 39 12 9 3 12 1 8 -5 -4 -6 -1 -14 5 -17
7 -3 0 -3 -17 0 -24 3 -26 3 -10 -5 36 -17 45 -13 43 19 -3 38 -33 48 -76 26
-35 -18 -67 -21 -37 -4 11 7 36 18 55 25 30 10 31 12 10 12 -14 0 -42 -10 -64
-23z"/>
<path d="M1270 1777 c0 -7 7 -38 16 -67 10 -34 14 -75 12 -109 -4 -45 -10 -59
-36 -82 -38 -34 -103 -53 -157 -46 -22 4 -45 3 -51 -1 -12 -8 -15 -42 -3 -42
4 0 22 -12 41 -27 24 -20 28 -21 14 -6 -23 28 -14 53 18 53 46 0 121 31 148
62 42 46 52 96 33 167 -8 32 -15 71 -15 85 0 14 -4 26 -10 26 -5 0 -10 -6 -10
-13z"/>
<path d="M1760 1770 c12 -8 10 -10 -10 -10 -21 -1 -22 -2 -9 -10 11 -7 19 -31
24 -77 9 -89 20 -108 110 -188 41 -37 73 -71 70 -75 -3 -4 6 -10 19 -12 33 -7
24 14 -22 49 -63 47 -133 116 -148 145 -9 17 -14 58 -14 108 0 70 -2 80 -17
80 -15 0 -16 -2 -3 -10z"/>
<path d="M1882 1758 c-1 -15 -7 -39 -12 -53 -6 -15 -7 -38 -4 -52 6 -24 9 -21
29 27 12 29 20 62 17 74 -5 16 -8 11 -13 -21 -5 -24 -13 -51 -18 -60 -14 -24
-14 2 0 28 5 11 8 34 6 52 -3 28 -4 29 -5 5z"/>
<path d="M1505 1653 c-11 -3 -32 -17 -47 -31 -27 -25 -28 -29 -25 -110 3 -78
6 -87 31 -108 21 -19 39 -24 81 -24 47 0 59 4 91 32 33 29 35 35 29 72 -3 23
-6 57 -6 77 0 65 -79 112 -154 92z m105 -53 c11 -11 20 -24 20 -29 0 -18 -18
-21 -33 -6 -9 8 -33 15 -56 15 -33 0 -41 -3 -41 -19 0 -20 25 -31 76 -31 38 0
54 -16 54 -55 0 -44 -16 -55 -79 -55 -55 0 -91 18 -91 47 0 18 37 16 44 -3 4
-11 17 -14 48 -12 35 2 43 7 43 23 0 17 -8 20 -52 23 -41 2 -56 8 -68 25 -35
50 -2 97 70 97 32 0 51 -6 65 -20z"/>
<path d="M1234 1615 c2 -16 6 -37 10 -46 6 -14 2 -16 -24 -14 -30 3 -30 2 -14
-16 16 -18 18 -18 36 -2 11 10 16 23 12 32 -4 9 -10 30 -15 46 l-8 30 3 -30z"/>
<path d="M1065 1550 c-11 -4 -44 -30 -73 -57 -45 -40 -55 -56 -63 -97 -15 -83
-3 -124 56 -181 63 -62 180 -111 237 -100 49 9 73 -7 91 -57 12 -33 15 -37 15
-18 0 14 -5 43 -12 65 l-12 40 -69 0 c-72 0 -143 25 -223 78 -59 39 -85 112
-62 174 11 27 90 110 140 145 26 19 11 24 -25 8z"/>
<path d="M1915 1550 c-4 -6 -10 -8 -15 -5 -4 3 -7 -2 -6 -12 2 -9 11 -17 20
-19 10 -1 15 0 12 3 -3 4 -1 12 5 19 6 8 6 14 0 18 -5 4 -12 2 -16 -4z"/>
<path d="M1953 1524 c0 -8 9 -22 19 -31 15 -13 19 -14 16 -3 -2 8 2 14 9 15 6
0 14 3 17 8 3 4 3 5 -1 2 -3 -3 -13 1 -21 7 -20 17 -39 18 -39 2z"/>
<path d="M2030 1426 c-12 -23 -11 -33 3 -80 52 -163 -32 -282 -208 -294 -66
-5 -72 -7 -100 -41 l-30 -36 35 26 c24 18 53 28 94 32 81 8 163 51 200 104 37
53 46 135 24 211 -10 32 -12 55 -6 66 5 9 8 22 6 27 -2 6 -10 -1 -18 -15z"/>
<path d="M1001 1413 c-2 -22 44 -189 47 -172 1 9 -2 33 -7 55 -5 21 -12 50
-16 64 -6 22 -4 22 11 -5 9 -16 21 -55 25 -85 l8 -55 -3 67 c-1 43 2 64 8 58
5 -5 10 -37 12 -70 2 -46 7 -65 21 -75 28 -22 47 -18 104 21 80 54 128 74 184
74 65 0 115 -24 194 -91 142 -121 175 -140 164 -99 -3 12 -8 19 -11 16 -8 -9
-64 25 -131 81 -36 30 -74 61 -83 69 -10 7 -43 21 -74 30 -71 20 -136 9 -230
-42 -74 -40 -78 -41 -71 -13 l6 21 -23 -21 c-30 -29 -48 -10 -39 42 3 23 1 42
-7 52 -7 9 -10 18 -7 21 3 3 13 -6 23 -21 14 -22 16 -33 7 -55 -9 -23 -8 -27
5 -26 18 3 42 34 42 56 0 9 -12 27 -27 41 l-27 24 22 -29 c26 -34 27 -45 7
-72 -13 -18 -14 -16 -9 16 5 29 1 39 -20 59 -14 14 -26 21 -26 17 0 -5 -7 -3
-15 4 -13 11 -15 10 -9 -6 5 -18 4 -18 -11 1 -9 11 -14 28 -11 38 2 9 0 15 -5
11 -5 -3 -9 -13 -10 -22 -1 -11 -4 -8 -9 8 -4 14 -8 20 -9 13z"/>
<path d="M985 1357 c2 -26 14 -64 24 -85 26 -48 25 -43 -4 53 -23 71 -25 75
-20 32z"/>
<path d="M961 1350 c0 -30 6 -55 19 -75 21 -32 27 -27 9 7 -6 11 -15 41 -19
67 l-8 46 -1 -45z"/>
<path d="M1926 1338 c-13 -18 -27 -46 -30 -63 l-6 -30 11 30 c6 17 22 45 36
63 13 17 22 32 19 32 -3 0 -16 -15 -30 -32z"/>
<path d="M1950 1333 c-11 -14 -25 -44 -31 -67 -22 -89 -35 -120 -49 -124 -13
-5 -13 -3 0 14 14 18 14 18 -3 5 -18 -14 -18 -16 -2 -27 9 -7 24 -10 33 -7 11
5 13 2 8 -8 -4 -8 6 0 23 18 28 30 80 168 67 180 -2 3 -17 -34 -31 -81 -14
-47 -31 -89 -37 -92 -8 -5 -9 -1 -4 12 5 10 12 35 18 54 21 78 51 142 60 128
8 -10 9 -10 6 1 -7 24 -37 21 -58 -6z m11 -31 c-11 -22 -23 -59 -27 -82 -4
-23 -17 -54 -30 -69 l-24 -26 20 40 c11 21 20 48 20 60 0 24 48 130 56 122 3
-3 -4 -23 -15 -45z"/>
<path d="M2010 1306 c0 -34 -43 -148 -66 -175 -17 -21 -21 -32 -13 -37 7 -4 9
-3 6 3 -4 6 5 21 18 33 29 27 34 17 8 -14 -14 -16 -12 -15 9 3 34 29 58 80 57
118 l-1 28 -8 -30 c-11 -45 -30 -88 -35 -83 -3 3 1 23 9 44 16 47 30 124 22
124 -3 0 -6 -6 -6 -14z"/>
<path d="M1335 1266 c-56 -18 -118 -57 -108 -67 5 -5 35 -16 67 -24 53 -14 65
-14 118 0 74 19 99 19 124 0 23 -17 15 -19 -22 -5 -19 8 -41 6 -85 -6 -32 -9
-72 -14 -89 -12 l-31 5 20 -21 c22 -22 14 -23 143 17 27 8 43 8 60 -1 22 -10
21 -11 -7 -6 -18 4 -51 -3 -83 -15 -29 -12 -64 -21 -78 -21 -16 0 -24 -5 -22
-12 8 -23 45 -20 95 6 28 15 63 26 83 25 l35 -1 -35 -7 c-19 -4 -54 -17 -77
-29 -23 -12 -56 -22 -73 -22 -21 0 -30 -4 -28 -12 8 -25 50 -20 101 12 56 35
101 48 111 31 5 -7 -3 -11 -22 -11 -16 0 -50 -14 -76 -32 -27 -17 -61 -31 -77
-31 -30 0 -38 -10 -18 -23 14 -8 53 9 124 56 17 11 41 20 55 20 18 0 21 -3 11
-9 -11 -7 -9 -11 9 -21 18 -10 21 -10 14 2 -5 7 -9 21 -10 31 -1 9 -3 19 -4
22 -1 3 -4 23 -5 45 -1 22 -4 42 -5 45 -1 3 -3 9 -4 14 0 5 -5 13 -10 18 -5 5
-6 2 -1 -6 5 -9 4 -12 -6 -8 -65 27 -90 29 -164 18 -89 -13 -131 -30 -76 -31
19 0 71 5 116 12 61 9 86 9 100 0 18 -10 16 -11 -15 -11 -19 1 -78 -2 -131 -6
-59 -5 -102 -4 -113 2 -48 27 176 68 243 45 41 -14 40 -5 -1 12 -52 22 -110
26 -153 12z"/>
<path d="M1583 1176 c0 -8 4 -14 8 -13 4 1 8 -2 9 -8 0 -5 11 -20 22 -32 22
-23 12 -33 -10 -11 -7 7 -12 10 -13 8 0 -3 -2 -13 -4 -22 -5 -27 50 -68 88
-66 l32 1 -35 4 -35 5 30 13 30 14 -30 -5 c-30 -5 -30 -5 -6 9 20 12 21 15 7
20 -11 5 -15 3 -10 -4 4 -7 1 -10 -7 -7 -8 3 -15 10 -15 16 -1 7 -3 15 -4 20
-1 4 -2 10 -2 13 1 3 -11 18 -27 33 -19 18 -28 22 -28 12z m57 -104 c-9 -3 -9
-6 1 -13 8 -5 9 -9 3 -9 -14 0 -37 27 -40 46 -2 10 4 9 23 -3 16 -11 21 -19
13 -21z"/>
<path d="M1615 1021 c-8 -13 22 -33 42 -28 14 4 14 5 -4 6 -12 0 -24 5 -28 10
-3 6 10 7 32 4 45 -7 42 2 -4 10 -18 4 -35 3 -38 -2z"/>
<path d="M654 870 c-39 -16 -66 -61 -60 -100 8 -49 8 -52 1 -76 -5 -16 1 -31
22 -54 24 -26 39 -33 79 -37 35 -4 60 0 82 11 32 17 57 13 65 -9 4 -8 -1 -11
-13 -8 -10 3 -27 -4 -40 -17 -18 -18 -20 -28 -14 -68 3 -26 11 -53 16 -59 14
-17 58 -16 82 2 16 12 21 12 40 0 27 -20 65 -19 87 1 17 15 20 15 43 0 32 -21
75 -21 105 0 22 16 25 16 51 0 33 -19 71 -21 87 -5 7 7 22 9 40 4 15 -4 46 -7
68 -6 62 3 77 3 128 -1 40 -4 51 -1 63 16 35 50 3 142 -45 129 -12 -3 -21 -1
-21 6 0 6 5 11 11 11 6 0 24 10 41 21 l29 21 23 -21 c26 -24 68 -27 86 -6 17
20 33 19 54 -4 25 -27 11 -44 -30 -37 -26 5 -35 3 -43 -13 -16 -29 -13 -83 5
-109 12 -18 19 -20 35 -12 12 7 25 7 36 1 11 -6 23 -5 35 2 14 9 23 9 38 -1
26 -16 72 -15 95 2 16 12 23 12 39 0 12 -8 25 -10 36 -4 9 5 22 5 30 0 8 -5
21 -3 32 3 14 9 23 9 38 -1 28 -17 74 -15 92 6 18 20 23 99 7 118 -6 7 -24 16
-40 19 -34 8 -35 12 -12 37 16 18 17 18 41 -4 32 -31 148 -33 181 -4 25 22 27
49 6 66 -8 7 -15 29 -15 50 0 21 7 43 15 50 32 27 8 72 -48 85 -15 4 -61 4
-102 0 -59 -5 -79 -12 -101 -31 l-26 -25 -27 24 c-25 24 -31 25 -136 23 -76
-1 -117 -6 -132 -16 -19 -12 -24 -12 -41 3 -23 21 -65 22 -82 2 -16 -19 -34
-19 -49 -1 -13 15 -58 19 -205 18 -60 -1 -83 -5 -98 -18 -18 -17 -21 -17 -54
1 -78 42 -164 7 -164 -67 0 -21 -4 -38 -10 -38 -5 0 -10 17 -10 38 0 59 -22
82 -78 81 -26 0 -68 3 -93 6 -31 5 -57 2 -83 -9 -33 -14 -41 -14 -66 -1 -32
16 -93 19 -126 5z m117 -40 c22 -12 26 -50 5 -50 -7 0 -19 7 -26 15 -16 19
-64 19 -80 0 -19 -23 -2 -35 50 -35 39 0 52 -4 64 -22 36 -51 3 -98 -70 -98
-58 0 -84 14 -84 45 0 28 27 35 36 10 4 -10 20 -15 50 -15 36 0 44 3 44 19 0
15 -9 19 -50 23 -27 3 -56 11 -65 18 -21 17 -20 76 3 89 22 14 98 14 123 1z
m214 -15 c20 -19 25 -34 25 -75 0 -69 -29 -100 -95 -100 -62 0 -82 13 -95 61
-24 86 11 139 90 139 41 0 56 -5 75 -25z m75 -42 c0 -85 7 -95 56 -91 l39 3 3
78 c2 67 5 77 21 77 18 0 19 -7 14 -82 -7 -100 -19 -118 -78 -118 -68 0 -82
20 -87 118 -4 74 -3 82 14 82 16 0 18 -9 18 -67z m242 -3 c24 -38 45 -69 48
-70 3 0 4 32 2 70 -4 66 -3 70 17 70 20 0 21 -5 21 -100 0 -97 -1 -100 -22
-100 -17 0 -34 18 -68 70 -25 38 -47 70 -50 70 -3 0 -4 -31 -2 -70 3 -65 2
-70 -17 -70 -20 0 -21 5 -21 100 0 99 0 100 24 100 19 0 33 -15 68 -70z m259
41 c26 -32 26 -110 0 -142 -17 -21 -28 -24 -86 -24 l-67 0 -1 98 -2 99 69 -4
c57 -3 72 -8 87 -27z m83 -46 l23 -70 22 73 c19 64 25 73 44 70 17 -2 26 -17
43 -73 l21 -70 23 73 c18 54 28 72 42 72 23 0 24 2 -14 -107 -28 -77 -37 -93
-54 -93 -18 0 -24 12 -41 73 -11 39 -23 65 -26 57 -3 -8 -13 -41 -22 -73 -13
-49 -19 -58 -37 -55 -16 2 -28 23 -54 98 -18 52 -33 96 -34 98 0 2 10 2 21 0
17 -2 26 -18 43 -73z m366 -27 c38 -97 38 -98 15 -98 -14 0 -25 7 -28 20 -4
16 -14 20 -50 20 -36 0 -46 -4 -50 -20 -3 -12 -14 -20 -26 -20 -12 0 -21 1
-21 3 0 1 15 38 33 82 19 44 37 88 40 98 4 12 15 17 28 15 16 -2 29 -25 59
-100z m71 22 c15 -42 30 -68 32 -60 45 129 51 140 68 140 11 0 19 -3 19 -7 0
-4 -17 -50 -37 -101 -49 -124 -62 -123 -115 8 -21 52 -38 96 -38 98 0 2 10 2
22 0 17 -2 27 -19 49 -78z m289 60 c0 -18 -7 -20 -60 -20 -53 0 -60 -2 -60
-20 0 -17 7 -20 45 -20 39 0 45 -3 45 -21 0 -18 -5 -20 -42 -17 -38 3 -43 0
-46 -19 -3 -22 0 -23 57 -23 54 0 61 -2 61 -20 0 -18 -7 -20 -75 -20 l-75 0 0
100 0 100 75 0 c68 0 75 -2 75 -20z m-1036 -204 l28 -24 -23 -31 c-28 -38 -37
-39 -41 -3 -2 19 -9 28 -25 30 -26 4 -27 6 -13 33 14 25 39 24 74 -5z m646 9
c10 -13 10 -19 -5 -35 -16 -18 -20 -18 -46 -4 -34 17 -34 18 -13 38 20 20 48
20 64 1z m-935 -9 c18 -13 18 -14 -3 -41 -12 -15 -22 -35 -22 -45 0 -9 -3 -19
-6 -23 -11 -11 -34 5 -34 24 0 11 -7 30 -16 44 -15 22 -14 24 13 38 36 19 45
20 68 3z m171 -8 c4 -6 -3 -19 -16 -30 -28 -23 -32 -23 -48 2 -11 18 -10 22
10 30 32 12 46 12 54 -2z m634 -2 c0 -18 -27 -39 -40 -31 -16 10 -12 33 8 38
29 8 32 7 32 -7z m246 4 c25 -10 26 -12 12 -27 -15 -14 -19 -14 -42 4 -37 30
-21 42 30 23z m-624 -22 c-9 -34 -24 -39 -49 -17 -32 31 -29 36 15 33 25 -1
36 -7 34 -16z m-558 -3 c-4 -8 -12 -15 -19 -15 -7 0 -18 7 -25 15 -11 13 -8
15 18 15 24 0 30 -4 26 -15z m-44 -25 c0 -5 -11 -10 -25 -10 -33 0 -32 -16 1
-24 38 -10 29 -48 -13 -57 -18 -3 -35 -4 -37 -1 -11 10 6 22 30 22 13 0 24 5
24 10 0 6 -6 10 -13 10 -7 0 -22 6 -32 14 -16 12 -17 16 -6 30 15 17 71 22 71
6z m80 -29 c0 -33 4 -40 23 -43 18 -2 29 -18 12 -18 -3 0 -18 0 -35 0 -29 0
-30 1 -30 50 0 38 4 50 15 50 11 0 15 -11 15 -39z m190 20 c27 -51 -12 -101
-64 -82 -21 9 -26 17 -26 44 0 18 5 38 12 45 19 19 66 15 78 -7z m145 9 c-3
-5 -17 -10 -30 -10 -24 0 -42 -30 -30 -50 10 -15 35 -12 35 5 0 8 7 15 15 15
9 0 15 -9 15 -25 0 -22 -4 -25 -33 -25 -18 0 -38 5 -45 12 -17 17 -15 54 4 72
17 17 79 23 69 6z m128 -41 c19 -54 18 -70 -3 -44 -16 20 -46 19 -54 -1 -3 -8
-10 -13 -15 -9 -12 7 28 105 43 105 6 0 19 -23 29 -51z m116 19 l21 -33 0 33
c0 17 5 32 10 32 6 0 10 -22 10 -50 0 -27 -4 -50 -10 -50 -5 0 -21 17 -35 37
l-25 38 0 -43 c0 -26 -4 -41 -10 -37 -5 3 -10 28 -10 56 0 59 18 65 49 17z
m201 12 c0 -13 7 -20 20 -20 13 0 20 7 20 20 0 11 7 20 16 20 12 0 14 -10 12
-52 -3 -53 -20 -73 -26 -30 -4 28 -39 30 -44 2 -6 -38 -22 -15 -22 33 -1 31 3
47 11 47 7 0 13 -9 13 -20z m200 10 c0 -5 -13 -10 -30 -10 -16 0 -30 -4 -30
-10 0 -5 14 -10 30 -10 17 0 30 -4 30 -10 0 -5 -13 -10 -30 -10 -16 0 -30 -4
-30 -10 0 -5 14 -10 30 -10 17 0 30 -4 30 -10 0 -5 -18 -10 -40 -10 l-40 0 0
50 0 50 40 0 c22 0 40 -4 40 -10z m136 -5 c4 -8 1 -21 -4 -28 -7 -8 -7 -18 -2
-27 20 -31 9 -45 -13 -17 -26 31 -48 35 -44 8 1 -11 -2 -21 -8 -23 -6 -2 -11
20 -13 50 l-3 52 41 0 c27 0 43 -5 46 -15z m134 5 c0 -5 -13 -10 -30 -10 -16
0 -30 -4 -30 -10 0 -5 14 -10 30 -10 17 0 30 -4 30 -10 0 -5 -13 -10 -30 -10
-16 0 -30 -4 -30 -10 0 -5 14 -10 30 -10 17 0 30 -4 30 -10 0 -5 -18 -10 -40
-10 l-40 0 0 50 0 50 40 0 c22 0 40 -4 40 -10z"/>
<path d="M880 803 c-22 -9 -30 -24 -30 -63 0 -53 10 -62 66 -58 l49 3 3 50 c3
38 -1 52 -14 62 -18 13 -48 16 -74 6z m46 -54 c3 -6 1 -16 -5 -22 -9 -9 -14
-8 -21 3 -9 15 -4 30 10 30 5 0 12 -5 16 -11z"/>
<path d="M1440 740 l0 -61 48 3 47 3 0 55 0 55 -47 3 -48 3 0 -61z"/>
<path d="M1931 750 c-10 -29 -9 -30 19 -30 27 0 28 1 17 30 -6 17 -14 30 -18
30 -4 0 -12 -13 -18 -30z"/>
<path d="M1077 543 c-12 -11 -8 -40 7 -52 17 -15 50 14 42 36 -3 8 -6 17 -6
19 0 7 -36 5 -43 -3z"/>
<path d="M2000 541 c0 -15 16 -22 34 -15 25 9 19 24 -9 24 -14 0 -25 -4 -25
-9z"/>
</g>
</svg>
